<?xml version="1.0" encoding="UTF-8"?> <svg xmlns="http://www.w3.org/2000/svg" xmlns:xlink="http://www.w3.org/1999/xlink" width="459px" height="145px" viewBox="0 0 459 145"><!-- Generator: Sketch 57.1 (83088) - https://sketch.com --><title>adventurouskate-logo</title><desc>Created with Sketch.</desc><defs><polygon id="path-1" points="0.06 0.231 214.120645 0.231 214.120645 81.4876261 0.06 81.4876261"></polygon><polygon id="path-3" points="0.785 0.914897115 269.996 0.914897115 269.996 24.94 0.785 24.94"></polygon></defs><g id="adventurouskate-logo" stroke="none" stroke-width="1" fill="none" fill-rule="evenodd"><g id="Group-3" transform="translate(0.000000, 32.000000)"><mask id="mask-2" fill="white"><use xlink:href="#path-1"></use></mask><g id="Clip-2"></g><path d="M42.781,35.7609841 C36.86,35.782 28.106,64.962 34.805,68.754 C40.812,60.74 41.711,47.621 44.957,36.847 C44.398,36.507 43.552,35.757 42.781,35.7609841 Z M15.59,35.036 C11.52,39.216 4.608,55.728 6.164,65.126 C6.385,66.464 6.754,68.224 8.339,68.754 C13.755,63.817 14.937,52.27 16.678,43.738 C17.238,40.993 19.291,36.816 16.315,35.036 C16.074,35.036 15.832,35.036 15.59,35.036 Z M205.204,34.672 C200.093,39.303 195.976,51.324 195.054,61.137 C194.774,64.115 194.356,67.947 196.866,69.476 C201.622,67.214 203.885,60.463 205.568,54.612 C207.32,48.511 209.464,40.849 207.381,34.672 C206.654,34.672 205.931,34.672 205.204,34.672 Z M67.435,57.514 C68.571,54.298 70.172,50.295 71.423,46.275 C72.546,42.664 74.763,37.59 72.148,34.672 C67.494,38.587 64.147,50.351 67.435,57.514 Z M44.957,3.494 C33.574,4.046 38.233,26.424 47.857,26.697 C49.521,20.878 52.763,3.113 44.957,3.494 Z M43.869,0.231 C44.715,0.231 45.561,0.231 46.407,0.231 C57.376,1.91 57.239,17.681 54.383,28.145 C67.121,28.677 74.962,24.314 81.211,18.357 C93.462,28.745 64.738,33.448 53.295,31.41 C51.065,43.373 45.181,55.366 45.682,67.664 C49.493,65.015 52.765,58.584 55.108,51.349 C57.304,44.571 57.772,28.373 66.347,34.311 C64.044,45.423 59.319,56.039 58.733,67.664 C62.402,67.436 64.761,62.836 66.347,59.325 C61.884,50.57 66.098,30.598 75.774,32.496 C77.94,32.923 79.162,35.234 79.399,37.211 C80.523,46.56 72.037,55.884 70.335,60.777 C74.085,61.142 75.699,59.371 77.949,58.24 C78.448,53.026 79.904,47.757 82.3,43.738 C84.535,39.984 88.144,35.678 92.451,36.122 C88.77,42.11 85.96,48.967 84.475,57.15 C90.556,52.717 96.153,47.8 96.439,37.572 C96.157,36.284 94.679,36.19 93.539,35.761 C96.376,31.938 101.598,34.788 102.24,37.572 C103.815,44.396 93.664,51.999 89.914,54.974 C88.173,56.358 84.912,58.2 84.475,59.687 C83.339,63.559 86.213,68.724 89.189,69.114 C93.175,69.637 96.268,65.465 97.89,63.313 C104.062,55.125 105.528,42.689 108.404,32.133 C109.947,31.921 110.801,32.396 112.029,32.496 C114.47,34.082 113.085,40.259 113.117,42.287 C115.523,39.46 117.966,33.121 122.905,33.948 C126.53,34.552 126.657,40.445 126.168,44.823 C125.041,54.912 118.665,68.22 119.643,77.453 C122.45,77.128 123.993,73.61 125.081,71.29 C130.787,59.119 132.391,42.447 136.682,28.87 C132.368,27.637 127.221,29.506 124.718,29.958 C125.857,25.743 132.983,26.118 137.407,26.333 C138.269,24.174 138.164,21.047 139.22,19.082 C143.718,17.538 145.63,22.374 144.296,26.697 C154.3,27.595 164.132,25.293 169.312,20.169 C171.075,22.126 173.451,22.793 172.938,26.333 C171.82,34.046 151,31.09 143.208,30.32 C141.87,36.501 140.088,42.706 138.495,48.811 C136.897,54.939 133.941,61.177 135.232,67.664 C139.408,64.997 141.856,59.029 143.934,50.986 C145.702,44.137 147.565,28.077 155.172,34.672 C153.167,45.5 147.29,56.246 148.284,67.664 C152.612,64.905 154.731,58.417 157.348,50.624 C159.012,45.667 161.669,28.031 168.95,34.672 C167.091,45.673 161.322,56.466 162.061,67.664 C169.737,61.323 171.563,49.13 174.388,37.936 C173.198,36.949 171.307,36.665 171.125,34.672 C172.169,31.971 174.264,30.318 178.014,30.32 C178.01,31.89 177.172,32.623 177.288,34.311 C180.835,35.838 185.798,35.951 188.165,38.659 C186.215,50.265 180.381,61.788 181.275,73.827 C192.163,65.291 188.248,37.93 203.393,33.584 C207.954,32.275 211.031,34.186 212.455,36.847 C217.484,46.246 210.115,62.611 203.753,68.026 C198.025,72.906 190.029,71.729 188.89,63.675 C186.378,68.112 184.77,78.534 178.014,77.453 C176.146,77.155 174.729,74.794 174.388,72.377 C172.963,62.313 180.762,49.663 179.826,40.109 C178.811,39.432 177.46,39.093 176.2,38.659 C174.671,44.106 173.413,50.407 170.4,57.514 C168.387,62.26 164.33,71.994 159.161,71.29 C154.415,70.643 155.775,63.236 155.535,58.6 C153.287,62.863 151.194,71.981 145.384,71.29 C141.683,70.849 141.223,65.318 141.396,61.137 C140.782,67.572 130.497,76.73 128.344,65.851 C126.161,70.073 123.255,82.337 116.742,81.441 C114.101,81.078 113.162,77.115 113.117,74.552 C112.907,62.633 121.45,48.38 120.005,36.847 C109.232,42.993 109.578,60.258 104.778,72.377 C98.484,72.869 100.921,64.015 101.152,60.777 C98.693,71.7 76.228,78.332 77.949,60.05 C76.343,60.552 72.387,62.773 68.885,61.501 C65.581,63.745 59.871,72.799 54.383,70.926 C50.792,69.702 52.923,63.034 52.571,59.687 C51.97,66.842 40.578,77.626 38.794,64.765 C36.133,75.135 25.726,71.796 25.742,61.501 C25.071,68.197 14.067,76.663 12.69,65.126 C10.471,74.371 0.115,72.658 0,62.951 C0,61.382 0,59.808 0,58.24 C1.101,47.955 8.05,30.019 19.216,33.584 C25.88,35.713 22.859,46.527 21.391,53.162 C20.283,58.171 18.461,62.613 19.579,67.664 C26.251,64.53 26.115,53.17 29.367,45.548 C31.711,40.055 37.376,31.51 45.682,35.399 C45.921,33.098 46.813,31.452 47.132,29.235 C35.504,26.683 27.808,3.552 43.869,0.231 L43.869,0.231 Z" id="Fill-1" fill="#1A1919" mask="url(#mask-2)"></path></g><path d="M251.973,62.32 C251.523,65.378 250.49,67.846 249.435,70.299 C253.03,75.577 260.478,82.087 259.224,92.777 C258.143,101.979 246.685,108.124 240.372,100.026 C242.89,99.768 243.169,102.635 246.172,102.564 C256.111,102.333 253.083,80.236 247.623,76.098 C245.862,80.042 243.859,85.403 241.094,91.325 C238.964,95.894 236.081,103.619 231.307,103.29 C226.458,102.956 227.032,95.93 227.681,90.6 C224.448,94.326 223.814,104.079 217.168,103.29 C215.049,103.04 213.434,100.166 213.18,97.126 C212.803,92.577 214.705,86.266 216.445,79.361 C218.162,72.541 219.864,61.433 226.958,66.311 C225.108,77.415 219.043,88.095 220.07,99.664 C224.4,96.932 226.563,90.279 229.131,82.624 C231.239,76.346 232.928,61.16 240.734,66.311 C239.032,77.588 233.077,88.316 233.845,99.664 C241.011,94.14 242.379,82.824 246.535,74.287 C242.19,70.051 243.859,59.923 251.973,62.32" id="Fill-4" fill="#1A1919"></path><polyline id="Fill-5" fill="#1A1919" points="152.465 124.582 149.744 125.101 151.089 132.143 149.798 132.39 148.454 125.346 145.722 125.869 145.503 124.728 152.247 123.44 152.465 124.582"></polyline><path d="M156.848,127.086 L159.129,126.791 C159.315,126.766 159.479,126.704 159.62,126.603 C159.761,126.503 159.876,126.373 159.966,126.215 C160.056,126.057 160.12,125.882 160.158,125.687 C160.196,125.493 160.202,125.291 160.174,125.081 C160.147,124.872 160.085,124.679 159.987,124.502 C159.889,124.326 159.771,124.175 159.633,124.05 C159.494,123.926 159.34,123.835 159.17,123.773 C159.001,123.714 158.831,123.693 158.66,123.716 L156.449,124.002 L156.848,127.086 Z M156.066,131.281 L154.997,123.018 L158.592,122.552 C158.965,122.505 159.318,122.538 159.653,122.653 C159.987,122.767 160.283,122.936 160.541,123.159 C160.798,123.382 161.012,123.645 161.182,123.951 C161.351,124.257 161.458,124.576 161.501,124.91 C161.537,125.189 161.533,125.462 161.489,125.728 C161.444,125.994 161.366,126.245 161.255,126.48 C161.143,126.716 160.997,126.925 160.815,127.111 C160.634,127.296 160.429,127.443 160.198,127.551 L162.572,130.439 L161.094,130.631 L158.906,127.991 L156.998,128.238 L157.37,131.112 L156.066,131.281 L156.066,131.281 Z" id="Fill-6" fill="#1A1919"></path><path d="M167.531,123.157 L166.403,126.871 L169.119,126.681 L167.531,123.157 Z M164.124,130.277 L166.891,121.732 L167.967,121.657 L171.885,129.735 L170.492,129.832 L169.444,127.634 L166.237,127.859 L165.528,130.178 L164.124,130.277 L164.124,130.277 Z" id="Fill-7" fill="#1A1919"></path><polyline id="Fill-8" fill="#1A1919" points="173.781 121.353 176.414 127.988 178.803 121.27 180.188 121.247 177.004 129.632 175.878 129.652 172.385 121.377 173.781 121.353"></polyline><polyline id="Fill-9" fill="#1A1919" points="188.285 128.694 188.241 129.855 182.53 129.636 182.849 121.311 188.454 121.525 188.409 122.686 184.118 122.522 184.027 124.89 187.744 125.033 187.703 126.124 183.985 125.981 183.888 128.525 188.285 128.694"></polyline><polyline id="Fill-10" fill="#1A1919" points="190.821 130.035 191.597 121.739 192.906 121.862 192.238 129.001 196.69 129.417 196.582 130.574 190.821 130.035"></polyline><polyline id="Fill-11" fill="#1A1919" points="202.545 131.463 203.499 123.185 209.013 123.819 208.88 124.973 204.671 124.489 204.387 126.962 207.908 127.367 207.783 128.45 204.262 128.045 203.851 131.612 202.545 131.463"></polyline><path d="M211.513,128.29 C211.471,128.679 211.491,129.063 211.573,129.441 C211.654,129.82 211.792,130.161 211.988,130.466 C212.184,130.769 212.432,131.022 212.733,131.223 C213.034,131.425 213.383,131.548 213.78,131.59 C214.184,131.633 214.557,131.584 214.898,131.445 C215.24,131.304 215.537,131.102 215.79,130.838 C216.042,130.574 216.246,130.268 216.401,129.924 C216.556,129.579 216.654,129.218 216.694,128.845 C216.736,128.448 216.714,128.063 216.629,127.688 C216.543,127.312 216.402,126.975 216.206,126.674 C216.01,126.374 215.762,126.124 215.461,125.922 C215.16,125.72 214.815,125.599 214.426,125.557 C214.021,125.513 213.648,125.562 213.307,125.703 C212.965,125.843 212.668,126.042 212.417,126.298 C212.165,126.554 211.962,126.857 211.806,127.207 C211.651,127.555 211.553,127.917 211.513,128.29 Z M213.642,132.766 C213.058,132.704 212.54,132.529 212.087,132.241 C211.634,131.952 211.255,131.592 210.951,131.163 C210.647,130.733 210.429,130.255 210.296,129.73 C210.164,129.204 210.126,128.676 210.183,128.147 C210.242,127.595 210.398,127.077 210.65,126.592 C210.903,126.108 211.225,125.69 211.617,125.339 C212.009,124.987 212.458,124.722 212.964,124.545 C213.471,124.368 214.009,124.309 214.577,124.37 C215.16,124.432 215.678,124.611 216.13,124.908 C216.582,125.204 216.958,125.569 217.258,126.002 C217.558,126.435 217.774,126.914 217.907,127.434 C218.04,127.957 218.078,128.478 218.022,129 C217.963,129.551 217.808,130.07 217.555,130.554 C217.303,131.04 216.981,131.455 216.589,131.801 C216.198,132.15 215.751,132.413 215.248,132.591 C214.745,132.77 214.209,132.828 213.642,132.766 L213.642,132.766 Z" id="Fill-12" fill="#1A1919"></path><path d="M221.843,129.474 L224.131,129.697 C224.319,129.716 224.492,129.692 224.652,129.625 C224.813,129.558 224.953,129.458 225.076,129.325 C225.199,129.191 225.301,129.034 225.381,128.852 C225.463,128.673 225.513,128.476 225.534,128.266 C225.554,128.056 225.536,127.854 225.48,127.66 C225.425,127.466 225.344,127.293 225.236,127.14 C225.129,126.989 225,126.865 224.848,126.766 C224.696,126.67 224.536,126.613 224.365,126.596 L222.146,126.38 L221.843,129.474 Z M220.141,133.388 L220.95,125.095 L224.559,125.448 C224.933,125.484 225.269,125.595 225.569,125.782 C225.869,125.968 226.12,126.199 226.321,126.474 C226.522,126.75 226.671,127.055 226.768,127.391 C226.865,127.726 226.897,128.062 226.865,128.396 C226.837,128.676 226.772,128.941 226.669,129.191 C226.567,129.44 226.434,129.668 226.273,129.872 C226.111,130.076 225.921,130.248 225.705,130.388 C225.486,130.528 225.252,130.625 225.003,130.678 L226.669,134.025 L225.186,133.881 L223.646,130.817 L221.73,130.631 L221.449,133.515 L220.141,133.388 L220.141,133.388 Z" id="Fill-13" fill="#1A1919"></path><polyline id="Fill-14" fill="#1A1919" points="233.158 134.605 233.875 126.316 235.185 126.429 234.467 134.718 233.158 134.605"></polyline><polyline id="Fill-15" fill="#1A1919" points="239.271 129.236 238.809 135.085 237.5 134.981 238.154 126.675 239.183 126.757 243.461 133.121 243.932 127.143 245.255 127.247 244.601 135.542 243.512 135.456 239.271 129.236"></polyline><path d="M253.583,131.981 C253.613,131.545 253.58,131.138 253.484,130.763 C253.388,130.388 253.231,130.062 253.015,129.784 C252.799,129.507 252.528,129.283 252.202,129.111 C251.877,128.94 251.5,128.84 251.071,128.81 L249.431,128.698 L249.023,134.693 L250.662,134.804 C251.098,134.835 251.492,134.785 251.841,134.655 C252.192,134.527 252.491,134.336 252.74,134.083 C252.988,133.828 253.183,133.522 253.325,133.164 C253.468,132.805 253.553,132.41 253.583,131.981 Z M247.631,135.761 L248.2,127.45 L251.15,127.651 C251.821,127.697 252.4,127.846 252.89,128.099 C253.377,128.352 253.78,128.677 254.093,129.076 C254.407,129.473 254.632,129.929 254.769,130.445 C254.907,130.96 254.957,131.503 254.917,132.073 C254.875,132.704 254.74,133.27 254.513,133.768 C254.288,134.265 253.986,134.684 253.611,135.023 C253.235,135.363 252.79,135.615 252.277,135.78 C251.763,135.944 251.198,136.006 250.583,135.964 L247.631,135.761 L247.631,135.761 Z" id="Fill-16" fill="#1A1919"></path><polyline id="Fill-17" fill="#1A1919" points="262.987 135.572 262.92 136.732 257.214 136.398 257.701 128.081 263.3 128.408 263.233 129.567 258.945 129.317 258.807 131.683 262.52 131.901 262.457 132.99 258.743 132.773 258.594 135.315 262.987 135.572"></polyline><path d="M267.004,132.878 L269.173,132.984 C269.361,132.994 269.533,132.964 269.689,132.892 C269.845,132.822 269.982,132.718 270.097,132.584 C270.214,132.449 270.308,132.289 270.379,132.104 C270.451,131.92 270.493,131.715 270.503,131.487 C270.515,131.253 270.491,131.041 270.43,130.849 C270.369,130.658 270.279,130.491 270.161,130.348 C270.042,130.206 269.905,130.093 269.749,130.011 C269.592,129.928 269.427,129.883 269.254,129.876 L267.158,129.772 L267.004,132.878 Z M265.494,136.869 L265.902,128.548 L269.394,128.719 C269.769,128.738 270.111,128.833 270.419,129.005 C270.729,129.176 270.991,129.394 271.205,129.66 C271.418,129.924 271.583,130.222 271.695,130.552 C271.808,130.884 271.857,131.217 271.84,131.552 C271.823,131.905 271.746,132.24 271.609,132.558 C271.471,132.876 271.288,133.157 271.057,133.4 C270.826,133.644 270.55,133.834 270.235,133.971 C269.919,134.108 269.574,134.168 269.199,134.149 L266.948,134.039 L266.806,136.934 L265.494,136.869 L265.494,136.869 Z" id="Fill-18" fill="#1A1919"></path><polyline id="Fill-19" fill="#1A1919" points="279.707 136.333 279.661 137.495 273.949 137.269 274.278 128.943 279.883 129.164 279.837 130.326 275.545 130.156 275.452 132.525 279.168 132.671 279.125 133.761 275.409 133.616 275.309 136.16 279.707 136.333"></polyline><polyline id="Fill-20" fill="#1A1919" points="283.711 131.757 283.544 137.623 282.231 137.585 282.468 129.257 283.5 129.286 288.09 135.427 288.261 129.432 289.588 129.471 289.35 137.788 288.259 137.757 283.711 131.757"></polyline><path d="M298.142,133.771 C298.15,133.334 298.096,132.929 297.981,132.559 C297.865,132.19 297.692,131.873 297.463,131.606 C297.232,131.341 296.951,131.131 296.616,130.977 C296.282,130.823 295.9,130.741 295.469,130.734 L293.827,130.707 L293.728,136.716 L295.371,136.742 C295.809,136.75 296.2,136.679 296.542,136.533 C296.885,136.385 297.173,136.178 297.409,135.913 C297.644,135.647 297.824,135.332 297.947,134.965 C298.071,134.599 298.136,134.201 298.142,133.771 Z M292.395,137.855 L292.532,129.524 L295.489,129.572 C296.162,129.584 296.749,129.704 297.25,129.93 C297.75,130.158 298.167,130.463 298.501,130.843 C298.836,131.223 299.084,131.669 299.249,132.175 C299.413,132.683 299.49,133.223 299.48,133.794 C299.469,134.427 299.365,134.998 299.165,135.507 C298.964,136.017 298.685,136.451 298.328,136.808 C297.969,137.167 297.538,137.441 297.034,137.632 C296.53,137.824 295.969,137.913 295.351,137.904 L292.395,137.855 L292.395,137.855 Z" id="Fill-21" fill="#1A1919"></path><polyline id="Fill-22" fill="#1A1919" points="307.717 136.861 307.711 138.022 301.997 137.994 302.041 129.661 307.65 129.69 307.644 130.853 303.348 130.83 303.335 133.2 307.056 133.219 307.05 134.311 303.331 134.292 303.317 136.838 307.717 136.861"></polyline><polyline id="Fill-23" fill="#1A1919" points="311.588 132.147 311.627 138.014 310.313 138.024 310.256 129.692 311.29 129.685 316.095 135.66 316.053 129.664 317.379 129.655 317.437 137.974 316.345 137.982 311.588 132.147"></polyline><polyline id="Fill-24" fill="#1A1919" points="326.436 130.642 323.667 130.697 323.806 137.865 322.493 137.891 322.353 130.722 319.573 130.776 319.549 129.615 326.414 129.481 326.436 130.642"></polyline><polyline id="Fill-25" fill="#1A1919" points="334.839 129.256 336.071 129.207 337.205 131.992 338.124 129.125 339.366 129.075 338.083 132.838 339.461 135.847 341.78 128.942 343.21 128.884 340.121 137.347 338.983 137.393 337.286 133.726 335.875 137.517 334.75 137.563 330.993 129.375 332.412 129.318 335.297 136.014 336.408 132.904 334.839 129.256"></polyline><path d="M346,132.889 C346.021,133.28 346.104,133.655 346.247,134.015 C346.389,134.376 346.581,134.69 346.824,134.958 C347.066,135.225 347.353,135.434 347.683,135.584 C348.012,135.734 348.376,135.797 348.775,135.773 C349.181,135.751 349.542,135.641 349.855,135.447 C350.168,135.253 350.429,135.005 350.635,134.702 C350.84,134.4 350.992,134.067 351.088,133.7 C351.186,133.335 351.222,132.964 351.2,132.59 C351.177,132.19 351.093,131.813 350.947,131.458 C350.801,131.102 350.606,130.792 350.365,130.528 C350.122,130.263 349.835,130.057 349.506,129.907 C349.176,129.757 348.816,129.694 348.424,129.716 C348.018,129.74 347.659,129.849 347.345,130.044 C347.031,130.238 346.77,130.482 346.564,130.776 C346.358,131.071 346.207,131.402 346.111,131.772 C346.014,132.142 345.976,132.514 346,132.889 Z M348.832,136.958 C348.246,136.991 347.706,136.903 347.212,136.692 C346.718,136.482 346.285,136.19 345.915,135.815 C345.545,135.441 345.251,135.006 345.035,134.508 C344.818,134.011 344.694,133.498 344.664,132.966 C344.631,132.413 344.701,131.875 344.87,131.356 C345.04,130.838 345.289,130.372 345.618,129.961 C345.948,129.55 346.347,129.216 346.818,128.958 C347.29,128.699 347.81,128.553 348.379,128.52 C348.965,128.487 349.506,128.579 350,128.798 C350.495,129.015 350.925,129.314 351.292,129.692 C351.659,130.07 351.951,130.506 352.167,131 C352.383,131.493 352.506,132.001 352.537,132.524 C352.569,133.078 352.5,133.615 352.33,134.134 C352.161,134.653 351.911,135.116 351.582,135.523 C351.252,135.93 350.854,136.263 350.387,136.521 C349.92,136.779 349.402,136.924 348.832,136.958 L348.832,136.958 Z" id="Fill-26" fill="#1A1919"></path><polyline id="Fill-27" fill="#1A1919" points="362.289 135.977 361.837 129.999 359.709 134.714 358.985 134.768 356.162 130.427 356.614 136.407 355.303 136.506 354.674 128.197 356.079 128.091 359.211 132.963 361.579 127.676 362.983 127.57 363.61 135.879 362.289 135.977"></polyline><polyline id="Fill-28" fill="#1A1919" points="372.25 133.919 372.358 135.075 366.667 135.608 365.891 127.311 371.476 126.79 371.584 127.946 367.308 128.346 367.529 130.707 371.232 130.36 371.334 131.447 367.629 131.794 367.868 134.329 372.25 133.919"></polyline><g id="Group-32" transform="translate(112.000000, 120.000000)"><mask id="mask-4" fill="white"><use xlink:href="#path-3"></use></mask><g id="Clip-30"></g><polyline id="Fill-29" fill="#1A1919" mask="url(#mask-4)" points="263.569 8.839 264.223 14.67 262.917 14.817 261.987 6.537 263.014 6.421 268.419 11.861 267.75 5.902 269.067 5.755 269.996 14.022 268.911 14.144 263.569 8.839"></polyline><path d="M0.841,18.892 C0.823,18.828 0.804,18.763 0.785,18.701 C0.802,18.695 0.818,18.69 0.834,18.686 C1.226,17.455 3.684,16.411 5.458,15.905 C7.676,15.269 9.881,14.806 11.542,14.215 C11.823,14.115 12.061,13.909 12.256,13.802 C12.151,13.56 11.882,14.007 11.699,13.856 C11.946,13.63 12.046,13.233 12.201,12.88 C12.337,12.569 12.638,12.177 12.51,11.956 C12.113,12.135 11.391,12.404 11.004,12.338 C10.846,12.027 10.603,11.373 10.693,11.071 C11.438,10.635 12.451,10.507 13.157,10.575 C14.113,8.458 15.038,6.155 15.982,3.876 C16.424,2.811 16.672,1.738 17.613,1.012 C17.661,0.998 17.708,0.984 17.757,0.971 C17.761,0.988 17.766,1.003 17.771,1.019 C17.987,1.025 18.137,0.911 18.314,0.914897115 C18.62,0.924 18.334,0.986 18.61,1.04 C18.703,1.24 18.242,1.132 18.39,1.363 C18.198,2.511 18.034,3.677 17.875,4.844 C17.793,5.032 18.053,4.96 17.972,5.182 C17.764,6.513 17.585,7.86 17.403,9.202 C17.48,9.366 17.116,9.287 17.217,9.465 C17.424,10.445 17.632,11.31 17.803,12.423 C19.908,11.788 22.485,11.141 24.32,10.974 C24.756,10.187 25.145,9.002 25.544,7.966 C25.787,7.335 25.89,6.749 27.023,6.761 C27.103,8.007 27.098,9.208 27.197,10.465 C27.866,10.621 28.699,10.483 29.378,10.621 C28.892,11.121 28.016,11.406 27.624,11.958 C28.217,13.054 28.855,14.071 29.435,15.192 C29.082,15.292 28.729,15.394 28.375,15.494 C27.479,14.955 26.736,14.286 25.794,13.575 C25.506,13.358 25.121,12.994 24.898,12.998 C24.504,13.005 23.573,13.584 23.041,13.79 C21.661,14.325 20.048,14.817 18.603,15.217 C19.054,16.273 19.333,17.109 19.684,18.087 C19.797,18.126 19.958,18.08 20.028,18.197 C20.849,19.299 21.753,20.249 22.59,21.32 C22.759,21.434 22.499,21.509 22.687,21.658 C23.457,22.533 24.213,23.432 24.966,24.34 C24.991,24.537 25.296,24.233 25.31,24.45 C25.128,24.474 25.184,24.671 25.351,24.595 C25.183,24.829 24.694,24.744 24.623,24.96 C24.573,24.972 24.526,24.987 24.478,25 C24.167,24.904 23.85,24.816 23.486,24.816 C21.379,23.327 18.876,21.506 16.595,19.857 C16.336,19.67 15.788,19.232 15.59,19.257 C15.351,19.289 15.219,19.565 14.984,19.693 C14.408,20.001 13.788,20.085 13.223,20.091 C13.065,19.782 12.823,19.128 12.913,18.826 C13.311,18.624 13.961,18.453 14.406,18.399 C14.042,17.955 13.12,17.507 12.698,17.168 C12.869,17.03 13.195,17.23 13.166,16.982 C12.937,16.988 12.606,16.951 12.292,17.023 C9.734,17.617 5.995,19.203 3.264,19.346 C2.374,19.392 1.252,19.353 0.841,18.892" id="Fill-31" fill="#1A1919" mask="url(#mask-4)"></path></g><polyline id="Fill-33" fill="#1A1919" points="274.332 101.829 274.332 61.854 277.207 61.854 277.207 86.099 300.55 61.798 303.877 61.798 287.244 79.332 304.723 101.829 301.452 101.829 285.383 81.08 277.207 89.481 277.207 101.829 274.332 101.829"></polyline><path d="M324.005,65.292 L315.096,86.268 L332.745,86.268 L324.005,65.292 Z M305.792,101.829 L322.82,61.798 L325.189,61.798 L342.216,101.829 L339.116,101.829 L333.534,88.635 L314.418,88.635 L308.838,101.829 L305.792,101.829 L305.792,101.829 Z" id="Fill-34" fill="#1A1919"></path><polyline id="Fill-35" fill="#1A1919" points="372.438 64.392 357.78 64.392 357.78 101.829 354.904 101.829 354.904 64.392 340.244 64.392 340.244 61.798 372.438 61.798 372.438 64.392"></polyline><polyline id="Fill-36" fill="#1A1919" points="405.59 99.234 405.59 101.829 378.922 101.829 378.922 61.798 405.084 61.798 405.084 64.392 381.797 64.392 381.797 80.122 402.153 80.122 402.153 82.603 381.797 82.603 381.797 99.234 405.59 99.234"></polyline><path d="M87.627,49.877 C87.627,49.877 109.225,40.774 116.791,23.156 C116.791,23.156 126.605,5.341 115.973,1.383 C115.973,1.383 107.59,-0.25 106.259,13.058 C106.259,13.058 108.172,14.697 109.808,11.728 C109.808,11.728 107.795,1.977 99.002,3.758 C99.002,3.758 87.96,7.123 102.477,23.156 C116.995,39.19 139.282,35.627 139.282,35.627 C139.282,35.627 383.497,-6.715 379.946,40.226 C379.946,40.226 381.256,39.238 390.964,41.293 C390.964,41.293 526.685,76.498 410.974,124.505 C410.974,124.505 403.181,126.405 388.034,128.421" id="Stroke-37" stroke="#1A1919" stroke-width="1.084" stroke-dasharray="3.2,3.2"></path></g></svg> 